<svg xmlns="http://www.w3.org/2000/svg" xmlns:xlink="http://www.w3.org/1999/xlink" viewBox="0,0,256,256" width="48px" height="48px" fill-rule="nonzero"><g fill="#ffffff" fill-rule="nonzero" stroke="none" stroke-width="1" stroke-linecap="butt" stroke-linejoin="miter" stroke-miterlimit="10" stroke-dasharray="" stroke-dashoffset="0" font-family="none" font-weight="none" font-size="none" text-anchor="none" style="mix-blend-mode: normal"><g transform="scale(10.66667,10.66667)"><path d="M8.02539,1c-1.517,0 -2.6685,1.81795 -3.0625,4.75195l-1.65039,0.48828l-1.98242,14.36328l12.31445,2.25586l0.75195,-19.90625l-0.90039,0.26758c-0.639,-1.418 -1.56658,-2.2207 -2.64258,-2.2207c-0.392,0 -0.92094,0.11273 -1.46094,0.55273c-0.507,-0.447 -1.01019,-0.55273 -1.36719,-0.55273zM7.98828,2.99414c0.095,0.038 0.49989,0.42833 0.83789,1.61133l-1.73047,0.51172c0.309,-1.417 0.77358,-2.05205 0.89258,-2.12305zM10.85352,3c0.106,0 0.40003,0.21492 0.70703,0.79492l-0.81641,0.24023c-0.079,-0.276 -0.16295,-0.52981 -0.25195,-0.75781c0.153,-0.174 0.29233,-0.27734 0.36133,-0.27734zM16.39258,3.07422l-0.74414,19.71875l7.03516,-1.38086l-2.59375,-16.8125zM9.39258,9.00391c0.884,-0.01 1.33594,0.25977 1.33594,0.25977l-0.6582,2.00781c0,0 -0.59569,-0.32226 -1.30469,-0.32226c-1.058,0 -1.10937,0.67775 -1.10937,0.84375c0,0.915 2.36328,1.26792 2.36328,3.41992c0,1.695 -1.05928,2.78711 -2.48828,2.78711c-1.726,0 -2.58789,-1.08203 -2.58789,-1.08203l0.46094,-1.53906c0,0 0.90502,0.79102 1.66602,0.79102c0.503,0 0.70898,-0.3965 0.70898,-0.6875c0,-1.196 -1.93164,-1.24666 -1.93164,-3.22266c0,-1.654 1.17092,-3.25586 3.54492,-3.25586z"></path></g></g></svg>